<svg width="40" height="36" viewBox="0 0 40 36" fill="none" xmlns="http://www.w3.org/2000/svg">
<path d="M40 8.625C40 10.3508 38.7563 11.75 37.2222 11.75C37.205 11.75 37.1906 11.7401 37.1734 11.7398L33.6651 33.4507C33.4722 34.6328 32.5556 35.5 31.4792 35.5H8.52083C7.44722 35.5 6.52639 34.6359 6.33472 33.4477L2.82708 11.7422C2.80972 11.7422 2.79514 11.75 2.71528 11.75C1.18125 11.75 -0.0625 10.3508 -0.0625 8.625C-0.0625 6.89922 1.24375 5.5 2.71528 5.5C4.18681 5.5 5.49306 6.89922 5.49306 8.625C5.49306 9.32797 5.24854 9.94453 4.90021 10.4664L11.1245 16.068C12.2294 17.0625 13.8676 16.6573 14.5002 15.2336L18.5002 6.23359C17.7153 5.68281 17.1597 4.74531 17.1597 3.625C17.1597 1.89922 18.4653 0.5 20 0.5C21.5347 0.5 22.7153 1.89922 22.7153 3.625C22.7153 4.74531 22.1623 5.68281 21.375 6.23438L25.375 15.2344C26.0077 16.6578 27.6465 17.0625 28.7507 16.0688L34.975 10.4672C34.6875 9.94531 34.4444 9.25781 34.4444 8.625C34.4444 6.89844 35.6875 5.5 37.2222 5.5C38.7569 5.5 40 6.89844 40 8.625Z" fill="#D8DEE9"/>
</svg>
