<svg width="112" height="143" viewBox="0 0 112 143" fill="none" xmlns="http://www.w3.org/2000/svg">
<path d="M91.89 17.8488C91.3966 17.8488 90.9033 17.7063 90.4716 17.4213C78.6316 10.3675 68.395 7.375 56.1233 7.375C43.9133 7.375 32.32 10.7238 21.775 17.4213C20.2333 18.3475 18.3833 17.7063 17.52 15.9963C17.1354 15.163 17.0491 14.1886 17.2797 13.2826C17.5104 12.3766 18.0395 11.6113 18.7533 11.1513C30.2233 3.955 42.8033 0.25 56.1233 0.25C69.2583 0.25 80.7283 3.59875 93.3083 11.08C94.85 12.0063 95.405 14.1438 94.6033 15.8538C94.3595 16.4477 93.9754 16.9501 93.4954 17.303C93.0154 17.6559 92.4589 17.8451 91.89 17.8488ZM3.58329 55.255C3.01485 55.2611 2.45606 55.0852 1.96889 54.7467C1.48172 54.4083 1.08521 53.9205 0.823355 53.3376C0.561497 52.7546 0.44452 52.0992 0.485401 51.4441C0.526281 50.789 0.72342 50.1598 1.05495 49.6263C7.15995 39.6513 14.93 31.8138 24.18 26.3275C43.5433 14.785 68.3333 14.7138 87.7583 26.2563C97.0083 31.7425 104.778 39.5088 110.883 49.4125C111.12 49.7954 111.289 50.2287 111.379 50.6873C111.47 51.1459 111.482 51.6207 111.413 52.0844C111.344 52.5481 111.196 52.9915 110.979 53.389C110.761 53.7864 110.477 54.13 110.143 54.4C108.725 55.54 106.813 55.1838 105.827 53.545C100.426 44.7127 93.253 37.5249 84.9216 32.5975C67.2233 22.1238 44.5916 22.1238 26.955 32.6688C18.5683 37.6563 11.5383 44.7813 5.98829 53.7588C5.49495 54.7563 4.56995 55.255 3.58329 55.255ZM42.125 141.254C41.7206 141.259 41.3196 141.167 40.9479 140.983C40.5762 140.799 40.2419 140.527 39.9666 140.185C34.6016 133.986 31.7033 129.996 27.5716 121.375C23.3166 112.611 21.0966 101.924 21.0966 90.4525C21.0966 69.2913 36.76 52.0488 56 52.0488C75.24 52.0488 90.9033 69.2913 90.9033 90.4525C90.9033 92.4475 89.5466 94.015 87.82 94.015C86.0933 94.015 84.7366 92.4475 84.7366 90.4525C84.7366 73.21 71.8483 59.1738 56 59.1738C40.1516 59.1738 27.2633 73.21 27.2633 90.4525C27.2633 100.713 29.2366 110.189 32.9983 117.884C36.945 126.078 39.6583 129.569 44.4066 135.126C45.5783 136.551 45.5783 138.76 44.4066 140.185C43.7283 140.898 42.9266 141.254 42.125 141.254ZM86.4016 128.073C79.0633 128.073 72.5883 125.935 67.285 121.731C58.0966 114.535 52.6083 102.85 52.6083 90.4525C52.6083 88.4575 53.965 86.89 55.6916 86.89C57.4183 86.89 58.775 88.4575 58.775 90.4525C58.775 100.499 63.215 109.975 70.7383 115.818C75.1166 119.238 80.235 120.876 86.4016 120.876C87.8816 120.876 90.3483 120.663 92.8149 120.164C94.4799 119.808 96.0833 121.09 96.3916 123.085C96.7 125.009 95.59 126.861 93.8633 127.218C90.3483 128.001 87.265 128.073 86.4016 128.073ZM74.0066 142.75C73.76 142.75 73.4516 142.679 73.205 142.608C63.4 139.473 56.9866 135.269 50.2649 127.645C46.0055 122.786 42.628 116.993 40.3302 110.607C38.0325 104.22 36.8606 97.3686 36.8833 90.4525C36.8833 78.91 45.3933 69.505 55.8766 69.505C66.36 69.505 74.87 78.91 74.87 90.4525C74.87 98.0763 80.6049 104.275 87.6966 104.275C94.7883 104.275 100.523 98.0763 100.523 90.4525C100.523 63.5913 80.4816 41.7888 55.815 41.7888C38.3016 41.7888 22.2683 53.0463 15.0533 70.5025C12.6483 76.2738 11.415 83.0425 11.415 90.4525C11.415 96.01 11.8466 104.774 15.5466 116.174C16.1633 118.026 15.3616 120.093 13.7583 120.734C12.155 121.446 10.3666 120.449 9.81162 118.668C6.84015 109.657 5.31467 100.095 5.30995 90.4525C5.30995 81.9025 6.72829 74.1363 9.50329 67.3675C17.705 47.4888 35.8966 34.5925 55.815 34.5925C83.8733 34.5925 106.69 59.6013 106.69 90.3813C106.69 101.924 98.18 111.329 87.6966 111.329C77.2133 111.329 68.7033 101.924 68.7033 90.3813C68.7033 82.7575 62.9683 76.5588 55.8766 76.5588C48.785 76.5588 43.0499 82.7575 43.0499 90.3813C43.0499 102.565 47.12 113.965 54.5816 122.515C60.44 129.213 66.0516 132.918 74.7466 135.696C76.4116 136.195 77.3366 138.19 76.905 140.043C76.5966 141.681 75.3016 142.75 74.0066 142.75Z" fill="url(#paint0_linear_101_28)"/>
<defs>
<linearGradient id="paint0_linear_101_28" x1="55.9673" y1="0.25" x2="55.9673" y2="142.75" gradientUnits="userSpaceOnUse">
<stop stop-color="#FFD928"/>
<stop offset="1" stop-color="#FF585F"/>
</linearGradient>
</defs>
</svg>
