<svg width="41" height="51" viewBox="0 0 41 51" fill="none" xmlns="http://www.w3.org/2000/svg">
<path d="M33.3525 6.36125C33.1758 6.36125 32.9992 6.31042 32.8446 6.20875C28.6046 3.6925 24.9387 2.625 20.5442 2.625C16.1717 2.625 12.02 3.81959 8.24374 6.20875C7.69165 6.53917 7.02915 6.31042 6.71999 5.70042C6.58226 5.40316 6.55137 5.05557 6.63396 4.73238C6.71655 4.40918 6.90603 4.13619 7.16165 3.97209C11.2692 1.405 15.7742 0.0833359 20.5442 0.0833359C25.2479 0.0833359 29.3554 1.27792 33.8604 3.94667C34.4125 4.27709 34.6112 5.03959 34.3242 5.64959C34.2368 5.86147 34.0993 6.04067 33.9274 6.16657C33.7555 6.29247 33.5562 6.35995 33.3525 6.36125ZM1.72915 19.705C1.52559 19.7072 1.32548 19.6444 1.15102 19.5237C0.976563 19.403 0.834572 19.229 0.740798 19.021C0.647025 18.813 0.605134 18.5793 0.619774 18.3456C0.634414 18.1119 0.705011 17.8874 0.823735 17.6971C3.00998 14.1388 5.79249 11.3429 9.10499 9.38584C16.0392 5.26834 24.9167 5.24292 31.8729 9.36042C35.1854 11.3175 37.9679 14.0879 40.1542 17.6208C40.2389 17.7574 40.2993 17.912 40.3318 18.0756C40.3644 18.2392 40.3684 18.4086 40.3438 18.574C40.3192 18.7394 40.2663 18.8976 40.1883 19.0393C40.1102 19.1811 40.0086 19.3037 39.8892 19.4C39.3812 19.8067 38.6967 19.6796 38.3433 19.095C36.4094 15.9443 33.8406 13.3802 30.8571 11.6225C24.5192 7.88625 16.4146 7.88625 10.0987 11.6479C7.0954 13.4271 4.5779 15.9688 2.5904 19.1713C2.41374 19.5271 2.08248 19.705 1.72915 19.705ZM15.5312 50.3829C15.3864 50.385 15.2428 50.3521 15.1097 50.2864C14.9766 50.2208 14.8569 50.1238 14.7583 50.0017C12.8371 47.7904 11.7992 46.3671 10.3196 43.2917C8.79582 40.1654 8.00082 36.3529 8.00082 32.2608C8.00082 24.7121 13.61 18.5613 20.5 18.5613C27.39 18.5613 32.9992 24.7121 32.9992 32.2608C32.9992 32.9725 32.5133 33.5317 31.895 33.5317C31.2767 33.5317 30.7908 32.9725 30.7908 32.2608C30.7908 26.11 26.1754 21.1029 20.5 21.1029C14.8246 21.1029 10.2092 26.11 10.2092 32.2608C10.2092 35.9208 10.9158 39.3013 12.2629 42.0463C13.6762 44.9692 14.6479 46.2146 16.3483 48.1971C16.7679 48.7054 16.7679 49.4933 16.3483 50.0017C16.1054 50.2558 15.8183 50.3829 15.5312 50.3829ZM31.3871 45.6808C28.7592 45.6808 26.4404 44.9183 24.5412 43.4188C21.2508 40.8517 19.2854 36.6833 19.2854 32.2608C19.2854 31.5492 19.7712 30.99 20.3896 30.99C21.0079 30.99 21.4937 31.5492 21.4937 32.2608C21.4937 35.8446 23.0837 39.225 25.7779 41.3092C27.3458 42.5292 29.1787 43.1138 31.3871 43.1138C31.9171 43.1138 32.8004 43.0375 33.6837 42.8596C34.28 42.7325 34.8542 43.19 34.9646 43.9017C35.075 44.5879 34.6775 45.2488 34.0592 45.3758C32.8004 45.6554 31.6962 45.6808 31.3871 45.6808ZM26.9483 50.9167C26.86 50.9167 26.7496 50.8913 26.6612 50.8658C23.15 49.7475 20.8533 48.2479 18.4462 45.5283C16.9209 43.7949 15.7114 41.7286 14.8885 39.4504C14.0657 37.1722 13.646 34.728 13.6542 32.2608C13.6542 28.1433 16.7017 24.7883 20.4558 24.7883C24.21 24.7883 27.2575 28.1433 27.2575 32.2608C27.2575 34.9804 29.3112 37.1917 31.8508 37.1917C34.3904 37.1917 36.4442 34.9804 36.4442 32.2608C36.4442 22.6788 29.2671 14.9013 20.4337 14.9013C14.1621 14.9013 8.4204 18.9171 5.83665 25.1442C4.9754 27.2029 4.53374 29.6175 4.53374 32.2608C4.53374 34.2433 4.68832 37.3696 6.01332 41.4363C6.23415 42.0971 5.94707 42.8342 5.3729 43.0629C4.79874 43.3171 4.15832 42.9613 3.95957 42.3258C2.89546 39.1114 2.34918 35.7007 2.34748 32.2608C2.34748 29.2108 2.8554 26.4404 3.84915 24.0258C6.78624 16.9346 13.3008 12.3342 20.4337 12.3342C30.4817 12.3342 38.6525 21.2554 38.6525 32.2354C38.6525 36.3529 35.605 39.7079 31.8508 39.7079C28.0967 39.7079 25.0492 36.3529 25.0492 32.2354C25.0492 29.5158 22.9954 27.3046 20.4558 27.3046C17.9162 27.3046 15.8625 29.5158 15.8625 32.2354C15.8625 36.5817 17.32 40.6483 19.9921 43.6983C22.09 46.0875 24.0996 47.4092 27.2133 48.4004C27.8096 48.5783 28.1408 49.29 27.9862 49.9508C27.8758 50.5354 27.4121 50.9167 26.9483 50.9167Z" fill="url(#paint0_linear_101_46)"/>
<defs>
<linearGradient id="paint0_linear_101_46" x1="20.4883" y1="0.0833359" x2="20.4883" y2="50.9167" gradientUnits="userSpaceOnUse">
<stop stop-color="#FFD928"/>
<stop offset="1" stop-color="#FF585F"/>
</linearGradient>
</defs>
</svg>
