<svg width="40" height="40" viewBox="0 0 40 40" fill="none" xmlns="http://www.w3.org/2000/svg">
<path d="M20 0C8.95312 0 0 8.95312 0 20C0 31.0469 8.95312 40 20 40C31.0469 40 40 31.0469 40 20C40 8.95312 31.0469 0 20 0ZM20 10C21.3805 10 22.5 11.1195 22.5 12.5C22.5 13.8805 21.3805 15 20 15C18.6195 15 17.5 13.8828 17.5 12.5C17.5 11.1172 18.6172 10 20 10ZM23.125 30H16.875C15.8438 30 15 29.1641 15 28.125C15 27.0859 15.8398 26.25 16.875 26.25H18.125V21.25H17.5C16.4648 21.25 15.625 20.4102 15.625 19.375C15.625 18.3398 16.4688 17.5 17.5 17.5H20C21.0352 17.5 21.875 18.3398 21.875 19.375V26.25H23.125C24.1602 26.25 25 27.0898 25 28.125C25 29.1602 24.1641 30 23.125 30Z" fill="#D8DEE9"/>
</svg>
