<svg width="30" height="30" viewBox="0 0 30 30" fill="none" xmlns="http://www.w3.org/2000/svg">
<g clip-path="url(#clip0_10_113)">
<path d="M30 7.96875C30 9.26309 29.0672 10.3125 27.9167 10.3125C27.9038 10.3125 27.893 10.3051 27.8801 10.3049L25.2488 26.5881C25.1042 27.4746 24.4167 28.125 23.6094 28.125H6.39063C5.58542 28.125 4.89479 27.477 4.75104 26.5857L2.12031 10.3066C2.10729 10.3066 2.09635 10.3125 2.03646 10.3125C0.885938 10.3125 -0.046875 9.26309 -0.046875 7.96875C-0.046875 6.67441 0.932813 5.625 2.03646 5.625C3.1401 5.625 4.11979 6.67441 4.11979 7.96875C4.11979 8.49598 3.93641 8.9584 3.67516 9.3498L8.34339 13.551C9.17203 14.2969 10.4007 13.993 10.8752 12.9252L13.8752 6.1752C13.2865 5.76211 12.8698 5.05898 12.8698 4.21875C12.8698 2.92441 13.849 1.875 15 1.875C16.151 1.875 17.0365 2.92441 17.0365 4.21875C17.0365 5.05898 16.6217 5.76211 16.0313 6.17578L19.0313 12.9258C19.5058 13.9934 20.7349 14.2969 21.563 13.5516L26.2313 9.35039C26.0156 8.95898 25.8333 8.44336 25.8333 7.96875C25.8333 6.67383 26.7656 5.625 27.9167 5.625C29.0677 5.625 30 6.67383 30 7.96875Z" fill="#D8DEE9"/>
</g>
<defs>
<clipPath id="clip0_10_113">
<rect width="30" height="30" fill="white"/>
</clipPath>
</defs>
</svg>
